<?xml version="1.0" encoding="UTF-8" standalone="no"?>
<!-- Created with Inkscape (http://www.inkscape.org/) -->

<svg
   xmlns:dc="http://purl.org/dc/elements/1.1/"
   xmlns:cc="http://creativecommons.org/ns#"
   xmlns:rdf="http://www.w3.org/1999/02/22-rdf-syntax-ns#"
   xmlns:svg="http://www.w3.org/2000/svg"
   xmlns="http://www.w3.org/2000/svg"
   xmlns:sodipodi="http://sodipodi.sourceforge.net/DTD/sodipodi-0.dtd"
   xmlns:inkscape="http://www.inkscape.org/namespaces/inkscape"
   width="116.69216mm"
   height="102.06875mm"
   viewBox="0 0 116.69216 102.06875"
   version="1.1"
   id="svg8"
   sodipodi:docname="sound.svg"
   inkscape:version="0.92.3 (2405546, 2018-03-11)">
  <defs
     id="defs2">
    <inkscape:path-effect
       effect="spiro"
       id="path-effect4664"
       is_visible="true" />
    <inkscape:path-effect
       effect="spiro"
       id="path-effect4660"
       is_visible="true" />
    <inkscape:path-effect
       effect="spiro"
       id="path-effect4656"
       is_visible="true" />
  </defs>
  <sodipodi:namedview
     id="base"
     pagecolor="#ffffff"
     bordercolor="#666666"
     borderopacity="1.0"
     inkscape:pageopacity="0.0"
     inkscape:pageshadow="2"
     inkscape:zoom="1.4"
     inkscape:cx="314.06457"
     inkscape:cy="95.416806"
     inkscape:document-units="mm"
     inkscape:current-layer="layer1"
     showgrid="false"
     inkscape:window-width="1837"
     inkscape:window-height="1025"
     inkscape:window-x="83"
     inkscape:window-y="27"
     inkscape:window-maximized="1"
     fit-margin-top="0"
     fit-margin-left="0"
     fit-margin-right="0"
     fit-margin-bottom="0" />
  <metadata
     id="metadata5">
    <rdf:RDF>
      <cc:Work
         rdf:about="">
        <dc:format>image/svg+xml</dc:format>
        <dc:type
           rdf:resource="http://purl.org/dc/dcmitype/StillImage" />
        <dc:title></dc:title>
      </cc:Work>
    </rdf:RDF>
  </metadata>
  <g
     inkscape:label="Layer 1"
     inkscape:groupmode="layer"
     id="layer1"
     transform="translate(-20.590718,-95.615062)">
    <rect
       style="opacity:1;fill:#000000;fill-opacity:0.69182392;stroke:#000000;stroke-width:0.26458332;stroke-opacity:0.95744683"
       id="rect4530"
       width="45.735115"
       height="8.1264858"
       x="-27.43796"
       y="151.46817"
       ry="4.0632429"
       transform="rotate(-45)" />
    <path
       style="opacity:1;fill:#000000;fill-opacity:0.69182392;stroke:#000000;stroke-width:0.71428573;stroke-opacity:0.95744683"
       d="m 346.95918,491.262 c -7.22431,-3.80856 -10.17329,-12.07054 -6.8425,-19.17027 1.89987,-4.04965 104.38785,-106.31275 108.06956,-107.83242 7.10191,-2.93141 14.97372,0.0625 18.5609,7.05928 2.06167,4.02128 1.57996,10.6698 -1.04677,14.44755 -1.05326,1.51479 -24.8259,25.64156 -52.8281,53.61504 -35.4517,35.41533 -51.71956,51.19595 -53.56872,51.96428 -3.3988,1.4122 -9.58666,1.37036 -12.34437,-0.0835 z"
       id="path4532"
       inkscape:connector-curvature="0"
       transform="scale(0.26458333)" />
    <rect
       style="opacity:1;fill:#000000;fill-opacity:0.69182392;stroke:#000000;stroke-width:0.22815195;stroke-opacity:0.95744683"
       id="rect4530-3"
       width="39.437695"
       height="7.0075226"
       x="-220.42276"
       y="-56.992847"
       ry="3.5037613"
       transform="matrix(-0.713769,-0.7003812,0.713769,-0.7003812,0,0)" />
    <rect
       style="opacity:1;fill:#000000;fill-opacity:0.69182392;stroke:#000000;stroke-width:0.26458332;stroke-opacity:0.95744683"
       id="rect4530-6"
       width="45.735115"
       height="8.1264858"
       x="-136.82738"
       y="-149.68379"
       ry="4.0632429"
       transform="scale(-1)" />
    <rect
       style="opacity:1;fill:#000000;fill-opacity:0.69182392;stroke:#000000;stroke-width:0.46748757;stroke-miterlimit:4;stroke-dasharray:none;stroke-opacity:0.95744683"
       id="rect4563"
       width="28.583097"
       height="27.354675"
       x="24.379465"
       y="134.32986"
       ry="5.1364675" />
    <path
       style="opacity:1;fill:#000000;fill-opacity:0.69182392;stroke:#000000;stroke-width:2.04094505;stroke-miterlimit:4;stroke-dasharray:none;stroke-opacity:0.95744683"
       d="m 103.15088,607.73218 c -3.733092,-1.86028 -5.924227,-4.16214 -8.428803,-8.85473 -1.253274,-2.34814 -1.334325,-4.73447 -1.334325,-39.28572 0,-40.65499 -0.167485,-39.05505 4.664446,-44.55831 1.288734,-1.46779 3.659302,-3.37298 5.267922,-4.23377 2.89116,-1.54707 3.36624,-1.56738 41.33192,-1.76732 25.44908,-0.13401 39.35615,0.0533 41.21996,0.55516 4.32515,1.16464 8.68454,4.85896 10.90861,9.24438 l 1.96429,3.87317 v 36.68058 c 0,40.61601 0.16484,39.0715 -4.75203,44.52459 -5.29973,5.87771 -3.3633,5.64812 -47.7863,5.66584 l -39.32404,0.0157 z"
       id="path4573"
       inkscape:connector-curvature="0"
       transform="scale(0.26458333)" />
    <path
       style="opacity:1;fill:#000000;fill-opacity:0.69182392;stroke:#000000;stroke-width:2.04094505;stroke-miterlimit:4;stroke-dasharray:none;stroke-opacity:0.95744683"
       d="m 353.38775,563.46845 c -6.96215,-3.62094 -10.03474,-11.70848 -7.10876,-18.71134 1.40924,-3.37278 3.55172,-5.65977 6.92057,-7.38735 2.58745,-1.32688 4.97778,-1.36293 78.27555,-1.18049 l 75.60659,0.18818 2.84845,1.9741 c 8.54947,5.92519 8.39845,18.62605 -0.28699,24.13419 l -3.32081,2.10599 -75.39587,-0.004 c -66.91554,-0.004 -75.63689,-0.12975 -77.53873,-1.11888 z"
       id="path4575"
       inkscape:connector-curvature="0"
       transform="scale(0.26458333)" />
    <path
       style="opacity:1;fill:#000000;fill-opacity:0.69182392;stroke:#000000;stroke-width:2.04094505;stroke-miterlimit:4;stroke-dasharray:none;stroke-opacity:0.95744683"
       d="m 435.32063,726.84864 c -3.58679,-1.91266 -92.31333,-89.28109 -93.46284,-92.03224 -4.80422,-11.49814 9.04291,-22.26104 18.93399,-14.71674 3.51928,2.68428 88.72059,86.30639 90.56314,88.88455 2.97535,4.1632 2.74794,10.28652 -0.53711,14.46277 -3.42983,4.36033 -10.70479,5.95719 -15.49718,3.40166 z"
       id="path4577"
       inkscape:connector-curvature="0"
       transform="scale(0.26458333)" />
    <path
       style="fill:none;fill-rule:evenodd;stroke:#000000;stroke-width:0.26458332px;stroke-linecap:butt;stroke-linejoin:miter;stroke-opacity:1"
       d="M 48.56994,137.11607 74.839284,115.76041"
       id="path4654"
       inkscape:connector-curvature="0"
       inkscape:path-effect="#path-effect4656"
       inkscape:original-d="M 48.56994,137.11607 74.839284,115.76041" />
    <path
       style="fill:none;fill-rule:evenodd;stroke:#000000;stroke-width:0.31505793px;stroke-linecap:butt;stroke-linejoin:miter;stroke-opacity:1"
       d="m 49.325892,159.22768 25.135416,24.37946"
       id="path4658"
       inkscape:connector-curvature="0"
       inkscape:path-effect="#path-effect4660"
       inkscape:original-d="m 49.325892,159.22768 25.135416,24.37946" />
    <path
       style="fill:none;fill-rule:evenodd;stroke:#000000;stroke-width:0.26458332px;stroke-linecap:butt;stroke-linejoin:miter;stroke-opacity:1"
       d="m 74.839284,115.76041 -0.377976,67.84673"
       id="path4662"
       inkscape:connector-curvature="0"
       inkscape:path-effect="#path-effect4664"
       inkscape:original-d="m 74.839284,115.76041 -0.377976,67.84673" />
    <path
       style="opacity:1;fill:#000000;fill-opacity:0.69182392;stroke:#000000;stroke-width:2.04094505;stroke-miterlimit:4;stroke-dasharray:none;stroke-opacity:0.95744683"
       d="m 237.2403,649.75699 -43.29032,-41.95097 2.29648,-2.56886 c 1.26307,-1.41288 2.90442,-4.14502 3.64746,-6.07143 1.26228,-3.27262 1.35098,-5.91762 1.35098,-40.28828 0,-40.70263 0.18935,-38.89883 -4.73638,-45.11808 -2.20742,-2.78709 -2.22711,-2.87719 -0.90299,-4.13149 2.38906,-2.26306 86.16997,-70.10364 86.3086,-69.88734 0.11189,0.17458 -0.4149,98.00039 -1.19824,222.51645 l -0.18528,29.45098 z"
       id="path4666"
       inkscape:connector-curvature="0"
       transform="scale(0.26458333)" />
    <path
       style="opacity:1;fill:#000000;fill-opacity:0.69182392;stroke:#000000;stroke-width:2.04094505;stroke-miterlimit:4;stroke-dasharray:none;stroke-opacity:0.95744683"
       d="M 255.88775,666.10611 C 243.1199,653.68027 224.38277,635.47946 214.2497,625.65985 l -18.42378,-17.85383 2.2493,-3.05439 c 4.1931,-5.69394 4.24412,-6.24037 4.21,-45.09485 -0.0171,-19.4822 -0.30194,-36.82411 -0.63295,-38.53757 -0.33101,-1.71347 -1.60273,-4.53537 -2.82603,-6.27089 -1.22331,-1.73552 -2.2242,-3.43899 -2.2242,-3.78549 0,-0.3465 6.66964,-6.08535 14.82143,-12.75301 20.29103,-16.59679 65.09814,-52.80136 67.47272,-54.51859 l 1.93701,-1.40079 -0.40991,59.85065 c -0.22545,32.91785 -0.61497,88.33717 -0.86558,123.15405 l -0.45567,63.3034 z"
       id="path4668"
       inkscape:connector-curvature="0"
       transform="scale(0.26458333)" />
    <path
       style="opacity:1;fill:#000000;fill-opacity:0.69182392;stroke:#000000;stroke-width:2.04094505;stroke-miterlimit:4;stroke-dasharray:none;stroke-opacity:0.95744683"
       d="m 237.5366,646.78719 -40.13687,-38.97732 1.4341,-2.14479 c 3.98503,-5.95983 3.82204,-4.15427 4.0624,-45.00192 0.23622,-40.14395 0.16777,-41.14522 -3.16337,-46.27502 -0.9656,-1.48697 -1.5648,-3.01237 -1.33155,-3.38977 0.65208,-1.05508 14.87225,-12.86098 39.6293,-32.90109 34.36511,-27.81757 40.60286,-32.79126 41.12509,-32.79126 0.50012,0 -0.27532,155.83048 -1.04348,209.69353 l -0.43875,30.76496 z"
       id="path4670"
       inkscape:connector-curvature="0"
       transform="scale(0.26458333)" />
    <path
       style="opacity:1;fill:#000000;fill-opacity:0.69182392;stroke:#000000;stroke-width:2.04094505;stroke-miterlimit:4;stroke-dasharray:none;stroke-opacity:0.95744683"
       d="m 104.6061,607.18991 c -3.29309,-1.65516 -6.204974,-4.34263 -8.232668,-7.59818 -1.534031,-2.46295 -1.560326,-3.00005 -1.774182,-36.24019 -0.122996,-19.11752 0.08167,-35.89598 0.472253,-38.71445 0.783204,-5.65171 2.627489,-8.63092 7.384177,-11.9282 l 2.95118,-2.04573 39.86421,-0.20678 c 35.85037,-0.18597 40.09291,-0.0885 42.1355,0.96774 l 2.27128,1.17452 -2.38823,1.8894 c -1.31351,1.03918 -2.8895,2.28097 -3.50218,2.75955 -0.82883,0.64741 -0.87049,0.87595 -0.16276,0.89286 0.52317,0.0125 2.31533,-1.09507 3.98257,-2.46125 l 3.03135,-2.48396 2.18747,2.30539 c 4.66566,4.91718 4.49065,3.23345 4.48627,43.16278 -0.002,21.34022 -0.29049,37.31517 -0.6996,38.78547 -0.38259,1.375 -1.69424,3.7106 -2.91477,5.19023 l -2.21915,2.69022 -2.13605,-1.79737 c -3.13768,-2.64018 -4.11554,-2.18972 -1.37794,0.63477 l 2.35732,2.43213 -3.82434,0.7917 c -2.44962,0.50712 -17.37989,0.85246 -41.53457,0.96072 -35.55081,0.15935 -37.86179,0.0928 -40.35714,-1.16137 z"
       id="path4672"
       inkscape:connector-curvature="0"
       transform="scale(0.26458333)" />
    <path
       style="opacity:1;fill:#000000;fill-opacity:0.69182392;stroke:#000000;stroke-width:2.04094505;stroke-miterlimit:4;stroke-dasharray:none;stroke-opacity:0.95744683"
       d="m 237.07185,651.35093 c -24.29518,-23.55684 -44.54518,-42.76489 -45,-42.68454 -0.45483,0.0803 -2.70245,0.81662 -4.99472,1.63617 -4.05845,1.45102 -5.17318,1.48465 -42.5,1.2825 -37.94298,-0.2055 -38.36209,-0.22358 -41.27257,-1.78061 -4.518266,-2.41715 -6.930647,-4.74287 -9.235415,-8.90363 l -2.109964,-3.80909 -0.203668,-36.34727 c -0.181637,-32.41579 -0.07446,-36.73628 0.990887,-39.94373 1.51666,-4.56625 6.023183,-9.50728 10.64135,-11.66739 l 3.57143,-1.67051 39.1533,-0.007 c 38.79207,-0.007 39.18747,0.008 42.85714,1.5697 2.03712,0.86716 4.12228,2.07252 4.63369,2.67857 0.80646,0.95568 0.87381,0.89701 0.50761,-0.44213 -0.36665,-1.34078 4.47617,-5.5237 36.79009,-31.77693 20.46678,-16.62807 37.62569,-30.23683 38.13091,-30.24166 1.57025,-0.015 13.16644,-9.21486 13.5162,-10.72307 0.41058,-1.77049 -0.258,167.90582 -0.86115,218.54491 l -0.44207,37.11635 z"
       id="path4674"
       inkscape:connector-curvature="0"
       transform="scale(0.26458333)" />
    <path
       style="opacity:1;fill:#000000;fill-opacity:0.69182392;stroke:#000000;stroke-width:2.04094505;stroke-miterlimit:4;stroke-dasharray:none;stroke-opacity:0.95744683"
       d="m 269.45489,683.63192 c -17.55453,-17.23003 -57.7749,-56.0562 -68.11552,-65.75437 l -9.06298,-8.49991 -4.44432,1.35705 c -4.13462,1.26248 -7.1098,1.35528 -42.69522,1.33174 l -38.25091,-0.0253 -4.02167,-1.96761 c -4.363565,-2.1349 -7.483453,-5.24171 -10.007847,-9.96593 l -1.611528,-3.01586 v -37.5 -37.5 l 1.908797,-3.61675 c 2.272203,-4.30532 6.733763,-8.5211 11.028358,-10.4208 2.97008,-1.31381 4.91252,-1.36715 42.58743,-1.16952 39.24538,0.20587 39.49577,0.21646 42.96837,1.81833 l 3.49296,1.61126 3.29276,-3.05711 c 10.53343,-9.77959 77.83828,-63.73683 79.50365,-63.73683 0.30102,0 1.04142,-0.70544 1.64533,-1.56765 0.60391,-0.8622 2.10923,-2.28769 3.34515,-3.16774 l 2.24712,-1.6001 -0.46114,127.09631 c -0.41229,113.63377 -0.58211,129.92917 -1.36211,130.70916 -0.11289,0.1129 -5.5069,-4.99837 -11.98668,-11.35837 z"
       id="path4676"
       inkscape:connector-curvature="0"
       transform="scale(0.26458333)" />
    <path
       style="opacity:1;fill:#000000;fill-opacity:0.69182392;stroke:#000000;stroke-width:2.04094505;stroke-miterlimit:4;stroke-dasharray:none;stroke-opacity:0.95744683"
       d="m 357.63775,492.52378 c -0.37321,-0.35165 -2.80963,-0.76622 -5.41425,-0.92125 -5.49386,-0.327 -8.9648,-2.43611 -11.30678,-6.87056 -0.76692,-1.45213 -1.40861,-2.21948 -1.42597,-1.70522 -0.0174,0.51426 -0.36861,0.72671 -0.78054,0.47212 -0.51089,-0.31574 -0.47972,-0.78732 0.0981,-1.48349 0.55692,-0.67104 0.71027,-2.52868 0.44775,-5.42379 -0.2196,-2.42176 -0.13814,-3.98068 0.18101,-3.46429 0.42479,0.68733 0.71921,0.48301 1.09882,-0.76262 0.58862,-1.93146 101.20878,-102.80207 105.90475,-106.16836 1.81111,-1.29829 2.68271,-2.3227 2.14286,-2.51856 -0.50049,-0.18159 1.34002,-0.16759 4.09002,0.0311 9.11233,0.6584 13.95909,4.77048 14.50413,12.30558 0.58047,8.02498 3.12755,5.07956 -52.25999,60.43301 -27.94856,27.93137 -52.1263,51.72241 -53.72829,52.86899 -1.602,1.14657 -2.78057,2.48113 -2.61905,2.9657 0.34679,1.04036 0.008,1.12808 -0.93252,0.24163 z"
       id="path4678"
       inkscape:connector-curvature="0"
       transform="scale(0.26458333)" />
    <path
       style="opacity:1;fill:#000000;fill-opacity:0.69182392;stroke:#000000;stroke-width:2.04094505;stroke-miterlimit:4;stroke-dasharray:none;stroke-opacity:0.95744683"
       d="m 352.67347,493.13541 c 1.86621,-0.53102 1.72788,-0.58321 -1.07143,-0.40428 -8.33345,0.53269 -15.23621,-8.32115 -13.57405,-17.41077 0.39539,-2.16221 2.60372,-4.7966 12.56259,-14.9863 6.64559,-6.79963 12.02226,-12.58199 11.94815,-12.8497 -0.17828,-0.64406 58.74301,-59.53754 59.38437,-59.35632 0.27302,0.0771 6.42325,-5.6761 13.6672,-12.78497 l 13.1708,-12.92522 4.63457,0.19409 c 2.54901,0.10674 4.63465,0.45412 4.63475,0.77195 1e-4,0.31783 0.34017,0.36775 0.7557,0.11094 1.16739,-0.72149 6.02725,2.84564 7.81264,5.73446 1.24948,2.02169 1.62186,3.75842 1.69511,7.90561 0.0516,2.92311 -0.16616,5.31458 -0.48399,5.31436 -0.31783,-2.1e-4 -0.3913,0.30149 -0.16328,0.67044 0.6539,1.05803 -2.86971,4.70287 -52.85612,54.67446 -59.48364,59.466 -55.2015,55.50375 -60.25443,55.75323 -3.19127,0.15757 -3.56987,0.0738 -1.86258,-0.41198 z"
       id="path4680"
       inkscape:connector-curvature="0"
       transform="scale(0.26458333)" />
    <path
       style="opacity:1;fill:#000000;fill-opacity:0.69182392;stroke:#000000;stroke-width:2.04094505;stroke-miterlimit:4;stroke-dasharray:none;stroke-opacity:0.95744683"
       d="m 395.17347,563.17736 c -46.29129,-0.41853 -43.27295,-0.0271 -46.81499,-6.07114 -3.37083,-5.75189 -1.79204,-13.92543 3.40596,-17.6329 l 2.3376,-1.6673 76.42928,-0.19103 76.42928,-0.19104 2.77011,2.28336 c 3.18465,2.62506 5.40439,6.97119 5.42707,10.62593 0.0226,3.63615 -2.7148,8.51588 -6.28984,11.21251 l -3.09124,2.3317 -34.7659,-0.16437 c -19.12125,-0.0904 -53.24805,-0.33148 -75.83733,-0.53572 z"
       id="path4682"
       inkscape:connector-curvature="0"
       transform="scale(0.26458333)" />
    <path
       style="opacity:1;fill:#000000;fill-opacity:0.69182392;stroke:#000000;stroke-width:2.04094505;stroke-miterlimit:4;stroke-dasharray:none;stroke-opacity:0.95744683"
       d="m 354.97951,565.0792 c -6.45356,-2.02331 -10.66319,-7.85548 -10.66319,-14.77318 0,-6.31713 2.8425,-10.89145 8.71429,-14.02359 2.39477,-1.27742 5.64173,-1.33355 77.14286,-1.33355 41.05357,0 75.54578,0.25196 76.64936,0.55992 3.0411,0.84862 8.11998,5.9312 9.47663,9.48354 2.57105,6.73219 -0.37855,14.98295 -6.68069,18.68755 l -3.37387,1.98327 -74.28572,0.13032 c -55.48726,0.0973 -74.96744,-0.0834 -76.97967,-0.71428 z"
       id="path4684"
       inkscape:connector-curvature="0"
       transform="scale(0.26458333)" />
    <path
       style="opacity:1;fill:#000000;fill-opacity:0.69182392;stroke:#000000;stroke-width:2.04094505;stroke-miterlimit:4;stroke-dasharray:none;stroke-opacity:0.95744683"
       d="m 363.38775,566.06111 c -10.37893,-0.4448 -12.3626,-1.12433 -15.93557,-5.45896 -6.08528,-7.38251 -4.42668,-18.39199 3.56788,-23.68289 l 2.97726,-1.97038 76.38117,-0.18812 c 76.32592,-0.18799 76.38291,-0.18705 78.79006,1.30065 3.58772,2.21734 7.14797,6.74507 8.16772,10.3873 1.75574,6.27087 -1.18622,13.49442 -7.11859,17.47865 -2.62477,1.76281 -3.42191,1.88913 -14.7379,2.33542 -13.87106,0.54706 -118.34273,0.38756 -132.09203,-0.20167 z"
       id="path4686"
       inkscape:connector-curvature="0"
       transform="scale(0.26458333)" />
    <path
       style="opacity:1;fill:#000000;fill-opacity:0.69182392;stroke:#000000;stroke-width:2.04094505;stroke-miterlimit:4;stroke-dasharray:none;stroke-opacity:0.95744683"
       d="m 426.81099,717.62745 c -5.40959,-5.00893 -26.64288,-25.82143 -47.1851,-46.25 l -37.34949,-37.14286 0.02,-3.84426 c 0.0342,-6.58314 4.75135,-11.51288 11.01644,-11.51288 5.5482,0 1.78109,-3.38052 59.64471,53.52391 22.80095,22.42298 37.80439,37.70992 38.39286,39.11835 3.21868,7.70337 -2.27425,15.21488 -11.12617,15.21488 h -3.5776 z"
       id="path4688"
       inkscape:connector-curvature="0"
       transform="scale(0.26458333)" />
    <path
       style="opacity:1;fill:#000000;fill-opacity:0.69182392;stroke:#000000;stroke-width:0.62031484;stroke-miterlimit:4;stroke-dasharray:none;stroke-opacity:0.95744683"
       d="m 118.63252,196.8498 c -1.23172,-0.7582 -27.872983,-27.08203 -28.281069,-27.9441 -0.543782,-1.14871 -0.339467,-3.04051 0.438846,-4.06341 1.109899,-1.45868 3.146733,-2.00118 4.844177,-1.29023 0.896336,0.37543 0.959302,0.43559 16.999476,16.24231 12.34078,12.16117 12.30514,12.11949 12.0426,14.08163 -0.36567,2.73288 -3.73905,4.39266 -6.04403,2.9738 z"
       id="path4690"
       inkscape:connector-curvature="0" />
    <path
       style="opacity:1;fill:#000000;fill-opacity:0.69182392;stroke:#000000;stroke-width:2.04094505;stroke-miterlimit:4;stroke-dasharray:none;stroke-opacity:0.95744683"
       d="m 271.59607,686.53479 c -17.4949,-17.09199 -57.06917,-55.32746 -68.0894,-65.7859 l -11.19946,-10.62856 -4.14945,1.16428 c -3.60324,1.01101 -9.26133,1.16427 -42.98421,1.16427 -37.20676,0 -38.95651,-0.0591 -41.73885,-1.40995 -4.450749,-2.16085 -8.104411,-5.5105 -10.426206,-9.55867 l -2.107336,-3.67424 v -38.21429 -38.21428 l 2.10223,-3.6653 c 2.2869,-3.98729 6.536627,-7.99767 10.638082,-10.03897 2.42439,-1.20663 5.35422,-1.29285 42.60342,-1.25388 39.52191,0.0414 40.04143,0.0605 43.46578,1.59923 l 3.46577,1.55738 5.4628,-4.89274 c 9.29443,-8.32453 56.31134,-46.31423 70.81994,-57.22256 3.33929,-2.51065 7.63298,-5.95109 9.54154,-7.64542 1.90856,-1.69433 3.80858,-3.0806 4.22225,-3.0806 0.80979,0 0.17118,239.46139 -0.67195,251.96429 -0.27579,4.08969 -0.74558,6.59905 -1.23298,6.58591 -0.43309,-0.0116 -4.80797,-3.94917 -9.72197,-8.75 z"
       id="path4692"
       inkscape:connector-curvature="0"
       transform="scale(0.26458333)" />
    <path
       style="opacity:1;fill:#000000;fill-opacity:0.69182392;stroke:#000000;stroke-width:2.04094505;stroke-miterlimit:4;stroke-dasharray:none;stroke-opacity:0.95744683"
       d="m 273.12634,688.69888 c -6.57113,-6.2121 -19.56962,-18.74662 -74.16667,-71.51935 l -6.57092,-6.35137 -3.07193,0.9254 c -4.10527,1.23668 -78.96656,1.89695 -83.28341,0.73454 -4.69969,-1.26549 -9.520644,-4.99672 -12.824229,-9.92544 l -3.035715,-4.52906 v -38.17796 c 0,-36.08238 0.07439,-38.32343 1.355277,-40.82808 2.211983,-4.32533 6.977243,-9.18899 10.935777,-11.16161 l 3.70372,-1.84564 h 39.8521 c 37.71495,0 40.04771,0.0743 43.49983,1.38602 l 3.64773,1.38604 6.23303,-5.49318 c 8.39086,-7.39486 43.55988,-35.92928 60.77254,-49.30785 7.66071,-5.9543 15.74335,-12.34214 17.96142,-14.19518 2.21806,-1.85305 4.34241,-3.47237 4.72078,-3.59849 0.37836,-0.12612 0.89393,1.27367 1.14572,3.11064 1.0236,7.46799 -0.26089,251.699 -1.34168,255.10485 -0.2805,0.88393 -0.79773,1.60715 -1.1494,1.60715 -0.35167,0 -4.12446,-3.29465 -8.38397,-7.32143 z"
       id="path4694"
       inkscape:connector-curvature="0"
       transform="scale(0.26458333)" />
    <path
       style="opacity:1;fill:#000000;fill-opacity:0.69182392;stroke:#000000;stroke-width:2.04094505;stroke-miterlimit:4;stroke-dasharray:none;stroke-opacity:0.95744683"
       d="m 274.35512,690.57001 c -3.67491,-3.42867 -23.52047,-22.48893 -44.10125,-42.35611 -31.71677,-30.61706 -37.70401,-36.09629 -39.28572,-35.95242 -9.2885,0.84488 -44.07151,1.65826 -62.22326,1.45505 -19.23534,-0.21533 -22.89779,-0.42774 -25.24157,-1.46392 -4.299844,-1.90097 -7.997439,-5.19723 -11.185595,-9.97153 l -2.936487,-4.39742 0.217542,-38.62762 0.217543,-38.62761 2.407389,-3.75055 c 2.793611,-4.35227 6.920297,-8.08892 11.245648,-10.18279 2.98781,-1.44638 3.83114,-1.47028 43.6254,-1.23645 37.24875,0.21887 40.80667,0.34382 43.35671,1.52262 l 2.77801,1.28417 2.93628,-2.80256 c 10.40675,-9.9328 84.89518,-69.40037 86.96391,-69.42732 1.03475,-0.0135 1.2341,1.86905 1.71905,16.23476 0.67138,19.888 -0.83215,238.99117 -1.66008,241.91774 -0.32619,1.15297 -0.94379,2.21322 -1.37246,2.35611 -0.42867,0.1429 -3.78614,-2.54548 -7.46106,-5.97415 z"
       id="path4696"
       inkscape:connector-curvature="0"
       transform="scale(0.26458333)" />
    <path
       style="opacity:1;fill:#000000;fill-opacity:0.69182392;stroke:#000000;stroke-width:2.04094505;stroke-miterlimit:4;stroke-dasharray:none;stroke-opacity:0.95744683"
       d="m 278.35191,694.76237 c -1.94457,-1.54591 -17.17889,-15.95779 -33.85404,-32.02641 -39.91447,-38.46263 -50.10362,-48.13513 -51.8244,-49.19664 -1.04227,-0.64295 -3.26351,-0.73563 -8.21429,-0.34276 -11.90393,0.94467 -61.39695,1.51746 -71.21657,0.82422 -8.93025,-0.63045 -9.62727,-0.79183 -13.1308,-3.04004 -2.312963,-1.48422 -5.161972,-4.35121 -7.600111,-7.64806 l -3.900175,-5.27382 0.245257,-38.79005 0.245257,-38.79004 2.769699,-4.02096 c 3.21407,-4.66609 6.403325,-7.63192 10.643013,-9.8974 l 3.01586,-1.61153 40.71428,0.0926 c 35.52445,0.0808 41.11035,0.23931 43.82137,1.24349 l 3.10707,1.15088 5.46436,-4.87817 c 15.18668,-13.55754 82.6202,-67.25167 84.46021,-67.25167 1.44935,0 1.93215,3.78311 2.41745,18.94224 0.5476,17.10561 -0.75587,221.84317 -1.48796,233.71445 -0.24759,4.01476 -0.83034,7.8195 -1.29502,8.45498 -0.75058,1.02649 -1.23944,0.84175 -4.38046,-1.65532 z"
       id="path4698"
       inkscape:connector-curvature="0"
       transform="scale(0.26458333)" />
    <path
       style="opacity:1;fill:#000000;fill-opacity:0.69182392;stroke:#000000;stroke-width:2.04094505;stroke-miterlimit:4;stroke-dasharray:none;stroke-opacity:0.95744683"
       d="m 273.63801,691.23826 c -3.67336,-3.41583 -21.30383,-20.22505 -39.17883,-37.35381 -42.78198,-40.99594 -41.69595,-40.01093 -44.08913,-39.98805 -1.09026,0.0104 -15.68298,0.31598 -32.42825,0.67901 -34.39851,0.74576 -51.8609,0.17733 -55.71076,-1.81347 -4.288509,-2.21764 -6.400819,-4.13983 -10.437994,-9.49853 l -3.960478,-5.25689 0.344982,-38.86121 0.344982,-38.8612 2.689905,-3.90563 c 3.212429,-4.6643 7.137013,-8.33442 11.043243,-10.32724 2.78085,-1.41868 3.98623,-1.45951 43.09081,-1.45951 32.64552,0 40.96626,0.19311 44.1356,1.02431 l 3.90566,1.02431 2.85715,-2.71881 c 9.60479,-9.13977 77.98925,-63.85944 84.90885,-67.9421 l 2.49555,-1.47241 0.84991,1.58807 c 1.70494,3.18571 1.97726,31.32884 1.31246,135.63949 -0.6265,98.30139 -1.09252,122.84576 -2.3718,124.91567 -1.106,1.78955 -3.448,0.49643 -9.80186,-5.412 z"
       id="path4700"
       inkscape:connector-curvature="0"
       transform="scale(0.26458333)" />
    <path
       style="opacity:1;fill:#000000;fill-opacity:0.69182392;stroke:#000000;stroke-width:2.04094505;stroke-miterlimit:4;stroke-dasharray:none;stroke-opacity:0.95744683"
       d="m 277.55904,695.39161 c -1.90135,-1.52435 -19.55028,-18.15828 -39.21984,-36.96428 -19.66956,-18.80601 -38.07687,-36.33126 -40.90512,-38.94502 l -5.14228,-4.75227 -38.73774,0.38904 c -44.63827,0.4483 -48.69533,0.17443 -54.498715,-3.6788 -2.152461,-1.42915 -5.356552,-4.69031 -7.80652,-7.94555 l -4.155572,-5.52147 0.416413,-38.93012 0.416413,-38.93012 2.666993,-3.87235 c 3.317224,-4.81646 8.264173,-9.27318 12.308648,-11.08889 2.96345,-1.33039 4.71382,-1.37372 44.28572,-1.09639 28.04935,0.19658 41.96366,0.54676 43.59178,1.09706 2.34961,0.79416 2.49342,0.71782 8.21429,-4.36033 15.72149,-13.95523 77.56409,-63.14231 83.06924,-66.06988 2.35638,-1.2531 3.1987,0.41502 3.9941,7.90989 0.82901,7.81165 0.11304,215.74092 -0.82148,238.57012 -0.76036,18.57455 -1.19787,19.38328 -7.67633,14.18936 z"
       id="path4702"
       inkscape:connector-curvature="0"
       transform="scale(0.26458333)" />
    <path
       style="opacity:1;fill:#000000;fill-opacity:0.69182392;stroke:#000000;stroke-width:2.04094505;stroke-miterlimit:4;stroke-dasharray:none;stroke-opacity:0.95744683"
       d="m 278.7449,696.96507 c -3.14223,-2.4108 -4.37975,-3.57134 -46.78572,-43.87494 -19.25,-18.29564 -36.16606,-34.28044 -37.59125,-35.52178 l -2.59125,-2.25698 -36.69446,0.45442 c -39.22763,0.4858 -49.04629,0.0238 -54.08113,-2.54481 -3.215604,-1.64047 -7.833115,-6.12959 -11.759399,-11.43241 l -2.868805,-3.8746 0.483799,-38.98254 0.483799,-38.98255 2.596633,-3.78155 c 3.080569,-4.48632 8.405985,-9.43102 12.172533,-11.3023 2.56486,-1.27427 4.8585,-1.3384 43.7781,-1.22397 23.19565,0.0682 42.37223,0.41916 44.06016,0.80637 l 2.98873,0.68563 8.79698,-7.48369 c 18.45174,-15.69706 68.10833,-55.25796 77.28048,-61.56856 1.83878,-1.26512 3.89651,-2.19367 4.57273,-2.06346 0.67622,0.13022 1.71164,1.51808 2.30092,3.08414 0.93805,2.49291 1.04798,16.14124 0.88305,109.6331 -0.1036,58.73214 -0.47314,115.99609 -0.82118,127.25322 -0.7815,25.27671 -1.4459,27.39559 -7.20472,22.97726 z"
       id="path4704"
       inkscape:connector-curvature="0"
       transform="scale(0.26458333)" />
    <path
       style="opacity:1;fill:#000000;fill-opacity:0.69182392;stroke:#000000;stroke-width:2.04094505;stroke-miterlimit:4;stroke-dasharray:none;stroke-opacity:0.95744683"
       d="m 278.89778,697.62745 c -1.60557,-1.08036 -19.89501,-18.06377 -40.6432,-37.74092 -20.74818,-19.67714 -39.72523,-37.62431 -42.17123,-39.8826 l -4.44725,-4.10597 -34.83846,0.49173 c -35.94956,0.50742 -49.86041,-0.0291 -54.85416,-2.11562 -3.073684,-1.28427 -8.819431,-6.61011 -13.036408,-12.08369 l -3.225818,-4.18707 0.500445,-39.02722 0.500444,-39.02721 2.568661,-3.78155 c 3.245739,-4.77834 8.949546,-9.96084 12.903846,-11.72448 2.91643,-1.30075 4.95573,-1.34876 45.71428,-1.07624 23.46392,0.15688 43.18639,0.41636 43.8277,0.57661 0.71959,0.17981 6.46261,-4.10063 15,-11.17996 25.15104,-20.85558 66.67167,-53.73009 72.72382,-57.58003 4.0377,-2.5685 4.72033,-2.53569 6.27039,0.30136 1.20143,2.19896 1.26529,8.68981 1.21048,123.03572 -0.0593,123.69436 -0.29725,135.56737 -2.79337,139.37693 -1.39805,2.13371 -1.65822,2.12024 -5.21017,-0.26979 z"
       id="path4706"
       inkscape:connector-curvature="0"
       transform="scale(0.26458333)" />
    <path
       style="opacity:1;fill:#000000;fill-opacity:0.69182392;stroke:#000000;stroke-width:2.04094505;stroke-miterlimit:4;stroke-dasharray:none;stroke-opacity:0.95744683"
       d="m 278.9646,698.2402 c -3.6019,-2.6092 -19.42739,-17.39535 -82.18807,-76.79034 l -5.20681,-4.92758 -32.30527,0.48743 c -36.50571,0.5508 -52.21905,-0.0945 -57.3277,-2.35431 -3.742226,-1.65537 -9.293866,-6.68886 -13.734267,-12.45242 l -3.21612,-4.17446 0.513264,-39.03982 0.513263,-39.03982 2.616003,-3.83981 c 3.141925,-4.61177 8.959413,-10.06889 12.729077,-11.94059 2.6115,-1.29664 4.90164,-1.36246 47.40499,-1.36246 h 44.66091 l 13.91052,-11.36766 c 36.95508,-30.19966 69.62978,-55.80576 73.76924,-57.81056 2.93782,-1.42283 4.52285,-0.51614 5.51065,3.15227 1.12979,4.1957 0.53714,252.51944 -0.61431,257.40006 -0.76614,3.24743 -2.49869,6.12589 -3.68718,6.12589 -0.27302,0 -1.77972,-0.92962 -3.34819,-2.06582 z"
       id="path4708"
       inkscape:connector-curvature="0"
       transform="scale(0.26458333)" />
    <path
       style="opacity:1;fill:#000000;fill-opacity:0.69182392;stroke:#000000;stroke-width:2.04094505;stroke-miterlimit:4;stroke-dasharray:none;stroke-opacity:0.95744683"
       d="m 279.05314,699.01324 c -3.45557,-2.50983 -25.76565,-23.27831 -60.66539,-56.4735 l -26.42857,-25.13776 -30,0.28333 c -33.75769,0.31882 -53.17505,-0.33633 -58.61433,-1.97768 -4.205288,-1.26899 -10.662157,-6.74889 -15.763296,-13.3782 l -3.27743,-4.25927 0.518747,-39.06064 0.518746,-39.06064 3.110774,-4.38647 c 3.696619,-5.21258 8.842263,-9.94511 12.792499,-11.7655 2.67781,-1.23402 5.64368,-1.31764 47.25215,-1.33235 l 44.39501,-0.0157 15.96214,-13.00037 c 41.31908,-33.65235 70.04151,-55.93743 73.07792,-56.69952 2.48441,-0.62355 3.82036,0.0253 4.85922,2.36015 1.10238,2.47759 1.05038,245.27747 -0.0547,255.45401 -0.65472,6.02907 -2.08627,9.5601 -4.15552,10.24985 -0.39584,0.13195 -1.98343,-0.67794 -3.52796,-1.79976 z"
       id="path4710"
       inkscape:connector-curvature="0"
       transform="scale(0.26458333)" />
    <path
       style="opacity:1;fill:#000000;fill-opacity:0.69182392;stroke:#000000;stroke-width:2.04094505;stroke-miterlimit:4;stroke-dasharray:none;stroke-opacity:0.95744683"
       d="m 279.45918,699.72641 c -3.7162,-2.39438 -21.9853,-19.25925 -60.35714,-55.7179 l -27.14286,-25.78953 -37.14286,-0.0403 c -38.61616,-0.0419 -48.49614,-0.55174 -53.47428,-2.75949 -3.662955,-1.62449 -10.212814,-7.55105 -14.493861,-13.11459 l -3.234949,-4.20406 0.511645,-39.07584 0.511644,-39.07584 3.094525,-4.37015 c 3.592865,-5.0739 9.081817,-10.22047 12.950036,-12.14227 2.53943,-1.26164 5.48718,-1.36679 47.70667,-1.70187 l 45,-0.35714 18.92857,-15.39964 c 39.4891,-32.127 66.7681,-53.22041 69.82664,-53.99327 0.91449,-0.23109 2.35734,0.0807 3.33361,0.72039 1.40696,0.92187 1.80603,1.94707 2.18549,5.61445 0.25533,2.46765 0.34817,60.73664 0.20631,129.48664 -0.2738,132.69826 -0.14955,128.16256 -3.62101,132.17308 l -1.57389,1.81829 z"
       id="path4712"
       inkscape:connector-curvature="0"
       transform="scale(0.26458333)" />
    <path
       style="opacity:1;fill:#000000;fill-opacity:0.69182392;stroke:#000000;stroke-width:2.04094505;stroke-miterlimit:4;stroke-dasharray:none;stroke-opacity:0.95744683"
       d="M 277.55148,698.99602 C 272.5152,695.01507 257.96437,681.53278 222.75,648.21887 l -30.63775,-28.98428 -40.43368,-0.44831 c -40.27976,-0.44661 -46.16809,-0.80789 -51.06851,-3.13329 -3.339539,-1.58471 -10.492442,-8.17122 -14.427358,-13.28493 l -3.247711,-4.22065 0.498241,-39.09927 0.49824,-39.09926 3.089906,-4.37015 c 3.860657,-5.46022 9.664715,-10.75706 13.866372,-12.65457 3.09447,-1.39749 4.87252,-1.46337 47.69887,-1.76748 l 44.48458,-0.31588 19.444,-15.77044 c 37.29768,-30.25103 63.14277,-50.3018 68.15384,-52.87416 2.72401,-1.39833 5.34593,-0.69259 6.78243,1.82563 0.76341,1.33829 0.9181,24.72044 0.8378,126.64133 -0.0627,79.60729 -0.36202,127.17437 -0.82418,130.98767 -0.77121,6.3632 -2.35454,9.55385 -4.93292,9.9406 -0.82274,0.1234 -2.93092,-0.97516 -4.98069,-2.59541 z"
       id="path4714"
       inkscape:connector-curvature="0"
       transform="scale(0.26458333)" />
    <path
       style="opacity:1;fill:#000000;fill-opacity:0.69182392;stroke:#000000;stroke-width:2.04094505;stroke-miterlimit:4;stroke-dasharray:none;stroke-opacity:0.95744683"
       d="m 279.45918,700.9307 c -4.15448,-2.51403 -16.75804,-14.08896 -62.15449,-57.08177 l -25.36878,-24.02557 -38.55979,-0.44882 c -39.85488,-0.4639 -48.62694,-1.01988 -53.24249,-3.37456 -3.532214,-1.802 -10.679579,-8.4523 -14.701469,-13.67905 l -3.191351,-4.1474 0.499194,-39.11232 0.499193,-39.11233 2.017166,-2.95475 c 3.353758,-4.91257 9.006125,-10.69869 12.879418,-13.18417 l 3.659089,-2.34803 13.65359,-0.52356 c 7.50947,-0.28795 27.99819,-0.54803 45.53049,-0.57795 l 31.87692,-0.0544 8.12308,-6.63817 c 12.8381,-10.49126 50.06444,-40.22682 60.26595,-48.13907 18.9669,-14.71065 22.58643,-16.53638 25.78215,-13.00473 1.32754,1.46709 1.3607,4.65729 1.3607,130.89286 0,137.02767 0.0991,132.8718 -3.26855,137.153 -1.78576,2.27023 -2.43612,2.31169 -5.66002,0.36079 z"
       id="path4716"
       inkscape:connector-curvature="0"
       transform="scale(0.26458333)" />
    <path
       style="opacity:1;fill:#000000;fill-opacity:0.69182392;stroke:#000000;stroke-width:2.04094505;stroke-miterlimit:4;stroke-dasharray:none;stroke-opacity:0.95744683"
       d="m 279.02315,701.29006 c -5.17483,-3.48889 -15.73723,-13.18875 -61.15599,-56.16183 l -26.23488,-24.82221 -18.40798,-0.0226 c -28.9527,-0.0355 -64.25759,-1.24363 -68.87803,-2.35695 -5.956543,-1.43526 -13.596372,-7.65038 -20.502555,-16.67917 l -2.28499,-2.98727 0.484769,-39.15558 0.484769,-39.15558 2.015491,-2.95475 c 3.293493,-4.8283 8.890525,-10.58592 13.127196,-13.50383 l 3.96829,-2.73307 17.30283,-0.53416 c 9.51655,-0.29379 30.04029,-0.55603 45.60831,-0.58275 l 28.30549,-0.0486 8.48023,-6.93765 c 4.66412,-3.81571 19.52795,-15.75059 33.03071,-26.52196 40.93951,-32.65809 46.81029,-36.75372 50.71516,-35.38045 1.03064,0.36246 2.25858,1.46165 2.72876,2.44264 2.12786,4.43963 1.72402,259.42122 -0.41908,264.61171 -1.04573,2.5327 -3.54639,5.35714 -4.74302,5.35714 -0.46598,0 -2.09745,-0.8429 -3.62548,-1.8731 z"
       id="path4718"
       inkscape:connector-curvature="0"
       transform="scale(0.26458333)" />
    <path
       style="opacity:1;fill:#000000;fill-opacity:0.69182392;stroke:#000000;stroke-width:2.04094505;stroke-miterlimit:4;stroke-dasharray:none;stroke-opacity:0.95744683"
       d="m 279.10204,701.99383 c -5.51171,-3.68817 -14.05465,-11.51617 -61.27089,-56.14324 l -26.27088,-24.83028 -16.58626,-0.005 c -21.93744,-0.006 -60.94177,-1.24969 -67.61489,-2.15471 -3.34729,-0.45397 -6.45982,-1.39204 -8.409064,-2.53437 -3.95088,-2.31545 -11.326596,-9.20715 -15.130377,-14.13756 l -2.952537,-3.82704 0.474005,-39.20637 0.474005,-39.20638 2.060838,-3.02151 c 3.279289,-4.80794 9.513643,-11.20271 13.799269,-14.15433 l 3.950201,-2.7206 19.80972,-0.53909 c 10.89534,-0.2965 31.42219,-0.56088 45.6152,-0.5875 l 25.80549,-0.0484 8.48023,-6.93835 c 13.98812,-11.44479 56.46102,-45.20144 65.26594,-51.87211 10.28674,-7.79331 16.09606,-10.83789 18.75249,-9.82791 3.94712,1.50068 3.73138,-4.9345 3.95324,117.92408 0.11315,62.66072 -0.0806,122.05561 -0.43052,131.98865 l -0.63625,18.06007 -2.14668,2.65422 c -1.18066,1.45981 -2.59407,2.74092 -3.1409,2.8469 -0.54683,0.10598 -2.27995,-0.66765 -3.85138,-1.71917 z"
       id="path4720"
       inkscape:connector-curvature="0"
       transform="scale(0.26458333)" />
    <path
       style="opacity:1;fill:#000000;fill-opacity:0.69182392;stroke:#000000;stroke-width:2.04094505;stroke-miterlimit:4;stroke-dasharray:none;stroke-opacity:0.95744683"
       d="m 280.58549,703.48851 c -4.80973,-2.49532 -14.28958,-11.07188 -61.02115,-55.20673 l -28.10913,-26.54719 h -14.95429 c -20.05482,0 -59.44907,-1.27398 -67.28946,-2.17608 -4.02801,-0.46346 -7.52975,-1.34053 -9.658057,-2.41903 -3.995087,-2.02447 -12.267902,-9.53262 -16.388557,-14.87375 l -2.969764,-3.84937 0.462538,-39.36543 0.462539,-39.36543 3.465403,-4.62737 c 3.693778,-4.93232 9.914041,-10.95607 14.333711,-13.88086 2.667867,-1.76551 2.909437,-1.78895 24.295857,-2.35735 11.88065,-0.31575 32.41865,-0.5927 45.63999,-0.61543 l 24.0388,-0.0413 6.31835,-5.22777 c 10.47784,-8.66933 54.97938,-44.03569 64.53263,-51.28551 12.03009,-9.12947 15.86938,-11.45631 19.59595,-11.87635 2.80903,-0.31662 3.2467,-0.15364 4.42771,1.6488 1.17356,1.79109 1.36159,4.39438 1.79879,24.90621 0.66427,31.16417 0.63909,186.3141 -0.0352,216.96554 l -0.545,24.77378 -1.93587,2.53806 c -2.68699,3.52282 -4.05562,4.13299 -6.46578,2.88259 z"
       id="path4722"
       inkscape:connector-curvature="0"
       transform="scale(0.26458333)" />
    <path
       style="opacity:1;fill:#000000;fill-opacity:0.69182392;stroke:#000000;stroke-width:2.04094505;stroke-miterlimit:4;stroke-dasharray:none;stroke-opacity:0.95744683"
       d="m 278.30886,702.71997 c -5.24851,-3.53603 -19.29151,-16.39173 -64.40467,-58.95946 l -22.34071,-21.08018 -27.65929,-0.47684 c -31.36697,-0.54076 -52.96626,-1.524 -58.73072,-2.67352 -2.16072,-0.43089 -5.227909,-1.53198 -6.815985,-2.44689 -3.80908,-2.19444 -12.188827,-9.998 -15.895499,-14.80254 l -2.958338,-3.83456 0.441086,-39.24855 0.441086,-39.24855 2.148922,-3.21429 c 3.02673,-4.52728 13.997674,-15.17952 17.197538,-16.69796 2.29816,-1.09055 5.99423,-1.36102 26.02417,-1.90439 12.84007,-0.34833 33.17326,-0.64458 45.18486,-0.65834 l 21.83926,-0.025 12.8036,-10.39245 c 39.35038,-31.94001 66.78758,-53.08834 72.7391,-56.0666 8.1029,-4.05485 10.25277,-2.66201 11.32313,7.3359 0.87599,8.18224 1.1211,238.36535 0.26772,251.39681 -0.58673,8.95939 -0.62072,9.09144 -3.07977,11.96429 -2.94827,3.4444 -4.64185,3.64963 -8.52549,1.03314 z"
       id="path4724"
       inkscape:connector-curvature="0"
       transform="scale(0.26458333)" />
    <path
       style="opacity:1;fill:#000000;fill-opacity:0.69182392;stroke:#000000;stroke-width:2.04094505;stroke-miterlimit:4;stroke-dasharray:none;stroke-opacity:0.95744683"
       d="m 279.64802,704.13408 c -4.2101,-2.07558 -21.27156,-17.57848 -70.79709,-64.32977 l -17.39397,-16.41962 -25.82031,-0.48506 c -30.15651,-0.56651 -53.35938,-1.61005 -59.34675,-2.6691 -2.3324,-0.41255 -5.7074,-1.50011 -7.500003,-2.41679 -3.929192,-2.00926 -12.932236,-10.20578 -16.995345,-15.47286 l -2.947256,-3.82057 0.409925,-39.28572 0.409924,-39.28571 2.175229,-3.21429 c 2.879945,-4.25563 14.042888,-15.30694 17.01295,-16.84282 3.462036,-1.79029 13.837466,-2.32134 56.422666,-2.88794 l 37.60452,-0.50033 26.36932,-21.13445 c 54.67923,-43.82425 62.83018,-49.39579 67.64693,-46.23973 3.76449,2.46659 3.63185,-2.55895 3.63185,137.60527 0,121.7631 -0.0807,130.50458 -1.22434,132.59349 -1.3499,2.46567 -5.19473,5.98718 -6.50904,5.96168 -0.46093,-0.009 -1.87807,-0.529 -3.14921,-1.15568 z"
       id="path4726"
       inkscape:connector-curvature="0"
       transform="scale(0.26458333)" />
    <path
       style="opacity:1;fill:#000000;fill-opacity:0.69182392;stroke:#000000;stroke-width:2.04094505;stroke-miterlimit:4;stroke-dasharray:none;stroke-opacity:0.95744683"
       d="m 450.53061,743.18049 c -1.57143,-0.75893 -6.07143,-4.45832 -10,-8.22087 -5.92828,-5.67774 -6.77848,-6.74611 -5,-6.28301 4.57304,1.19078 10.06349,0.58501 13.13789,-1.44953 4.63626,-3.06814 7.23703,-9.51294 5.85653,-14.51271 -0.40778,-1.47684 -0.62122,-2.80536 -0.47432,-2.95226 0.1469,-0.1469 3.5161,3.34315 7.4871,7.75568 4.49706,4.99706 7.51261,8.99938 7.99585,10.61229 2.24125,7.48064 -5.6354,16.49917 -14.36019,16.44198 -0.98215,-0.006 -3.07143,-0.63264 -4.64286,-1.39157 z"
       id="path4822"
       inkscape:connector-curvature="0"
       transform="scale(0.26458333)" />
    <path
       style="opacity:1;fill:#000000;fill-opacity:0.69182392;stroke:#000000;stroke-width:2.04094505;stroke-miterlimit:4;stroke-dasharray:none;stroke-opacity:0.95744683"
       d="m 449.73743,741.29693 c -1.52804,-1.02643 -4.87695,-3.88098 -7.44204,-6.34343 l -4.66379,-4.4772 4.507,-0.36178 c 5.93686,-0.47655 9.36228,-2.71425 11.87565,-7.75792 1.08372,-2.17476 1.8735,-4.96506 1.8735,-6.61912 V 712.878 l 3.75,4.18138 c 9.71643,10.83416 10.73854,13.55165 7.30245,19.4149 -3.7311,6.36664 -11.61427,8.57662 -17.20277,4.82265 z"
       id="path4824"
       inkscape:connector-curvature="0"
       transform="scale(0.26458333)" />
    <path
       style="opacity:1;fill:#000000;fill-opacity:0.69182392;stroke:#000000;stroke-width:2.04094505;stroke-miterlimit:4;stroke-dasharray:none;stroke-opacity:0.95744683"
       d="m 426.61949,722.10941 c -2.12428,-2.151 -3.70206,-4.07116 -3.50618,-4.26704 0.19587,-0.19587 2.25626,1.56403 4.57864,3.9109 2.32238,2.34687 3.90017,4.26704 3.50619,4.26704 -0.39398,0 -2.45437,-1.75991 -4.57865,-3.9109 z"
       id="path4826"
       inkscape:connector-curvature="0"
       transform="scale(0.26458333)" />
    <path
       style="opacity:1;fill:#000000;fill-opacity:0.69182392;stroke:#000000;stroke-width:2.04094505;stroke-miterlimit:4;stroke-dasharray:none;stroke-opacity:0.95744683"
       d=""
       id="path4828"
       inkscape:connector-curvature="0"
       transform="scale(0.26458333)" />
    <path
       style="opacity:1;fill:#000000;fill-opacity:0.69182392;stroke:#000000;stroke-width:2.04094505;stroke-miterlimit:4;stroke-dasharray:none;stroke-opacity:0.95744683"
       d="m 449.81632,745.02796 c -2.9628,-1.29474 -28.60063,-25.92789 -72.02438,-69.20195 l -36.72291,-36.59631 -0.905,-4.044 c -2.94002,-13.13737 9.53496,-23.00548 21.63234,-17.11188 5.88198,2.86558 103.89999,99.75622 107.985,106.743 1.76975,3.02686 1.96115,3.92171 1.59585,7.46104 -0.54816,5.31123 -3.22343,9.11511 -8.2618,11.74718 -4.26884,2.23007 -9.57525,2.63024 -13.2991,1.00292 z m -15.35714,-16.77734 c 0,-0.91339 -2.10027,-2.511 -2.61905,-1.99222 -0.51878,0.51878 1.07883,2.61905 1.99222,2.61905 0.34476,0 0.62683,-0.28207 0.62683,-0.62683 z M 396.5424,691.23423 c -14.69934,-14.41807 -32.51179,-31.84699 -39.58322,-38.73096 -7.07143,-6.88396 4.51194,4.91263 25.74082,26.21466 21.22889,21.30202 39.04134,38.73095 39.58322,38.73095 0.54189,0 -11.04147,-11.7966 -25.74082,-26.21465 z m 51.45062,11.5121 c -13.54352,-13.66342 -81.90239,-80.33664 -83.89098,-81.82234 -1.17857,-0.88051 7.66071,8.00123 19.64286,19.73721 11.98214,11.73598 32.54217,32.03105 45.68895,45.10014 13.14679,13.0691 24.05845,23.6068 24.24813,23.41712 0.18968,-0.18968 -2.37035,-3.08415 -5.68896,-6.43213 z"
       id="path4830"
       inkscape:connector-curvature="0"
       transform="scale(0.26458333)" />
  </g>
</svg>
